<svg width="16" height="16" viewBox="0 0 16 16" fill="none" xmlns="http://www.w3.org/2000/svg">
<path d="M6 11H2V4H8V3H2C1.73478 3 1.48043 3.10536 1.29289 3.29289C1.10536 3.48043 1 3.73478 1 4V11C1 11.2652 1.10536 11.5196 1.29289 11.7071C1.48043 11.8946 1.73478 12 2 12H6V11Z" fill="black" style="fill:black;fill-opacity:1;"/>
<path d="M6.74765 15L5.94765 14.4L8.5 11H12V8H13V11C12.9997 11.2651 12.8942 11.5193 12.7068 11.7068C12.5193 11.8942 12.2651 11.9997 12 12H9L6.74765 15Z" fill="black" style="fill:black;fill-opacity:1;"/>
<path d="M15 3H13V1H12V3H10V4H12V6H13V4H15V3Z" fill="black" style="fill:black;fill-opacity:1;"/>
</svg>
